<svg width="24" height="24" viewBox="0 0 24 24" fill="none" xmlns="http://www.w3.org/2000/svg">
  <path d="M9.8 2.5C10.05 2.5 10.28 2.66 10.37 2.89L11.3 5.26C11.91 6.81 13.13 8.03 14.68 8.64L17.05 9.57C17.28 9.66 17.44 9.89 17.44 10.14C17.44 10.39 17.28 10.62 17.05 10.71L14.68 11.64C13.13 12.25 11.91 13.47 11.3 15.02L10.37 17.39C10.28 17.62 10.05 17.78 9.8 17.78C9.55 17.78 9.32 17.62 9.23 17.39L8.3 15.02C7.69 13.47 6.47 12.25 4.92 11.64L2.55 10.71C2.32 10.62 2.16 10.39 2.16 10.14C2.16 9.89 2.32 9.66 2.55 9.57L4.92 8.64C6.47 8.03 7.69 6.81 8.3 5.26L9.23 2.89C9.32 2.66 9.55 2.5 9.8 2.5Z" fill="url(#paint0_linear)"/>
  <path d="M18.34 3.68C18.48 3.68 18.61 3.77 18.66 3.9L19.11 5.07C19.46 5.95 20.15 6.64 21.03 6.99L22.2 7.44C22.33 7.49 22.42 7.62 22.42 7.76C22.42 7.9 22.33 8.03 22.2 8.08L21.03 8.53C20.15 8.88 19.46 9.57 19.11 10.45L18.66 11.62C18.61 11.75 18.48 11.84 18.34 11.84C18.2 11.84 18.07 11.75 18.02 11.62L17.57 10.45C17.22 9.57 16.53 8.88 15.65 8.53L14.48 8.08C14.35 8.03 14.26 7.9 14.26 7.76C14.26 7.62 14.35 7.49 14.48 7.44L15.65 6.99C16.53 6.64 17.22 5.95 17.57 5.07L18.02 3.9C18.07 3.77 18.2 3.68 18.34 3.68Z" fill="url(#paint1_linear)"/>
  <path d="M16.98 13.62C17.12 13.62 17.25 13.71 17.3 13.84L17.75 15.01C18.1 15.89 18.79 16.58 19.67 16.93L20.84 17.38C20.97 17.43 21.06 17.56 21.06 17.7C21.06 17.84 20.97 17.97 20.84 18.02L19.67 18.47C18.79 18.82 18.1 19.51 17.75 20.39L17.3 21.56C17.25 21.69 17.12 21.78 16.98 21.78C16.84 21.78 16.71 21.69 16.66 21.56L16.21 20.39C15.86 19.51 15.17 18.82 14.29 18.47L13.12 18.02C12.99 17.97 12.9 17.84 12.9 17.7C12.9 17.56 12.99 17.43 13.12 17.38L14.29 16.93C15.17 16.58 15.86 15.89 16.21 15.01L16.66 13.84C16.71 13.71 16.84 13.62 16.98 13.62Z" fill="url(#paint2_linear)"/>
  <defs>
    <linearGradient id="paint0_linear" x1="3.52" y1="4.02" x2="17.29" y2="16.69" gradientUnits="userSpaceOnUse">
      <stop stop-color="#7C3AED"/>
      <stop offset="0.55" stop-color="#C026D3"/>
      <stop offset="1" stop-color="#2563EB"/>
    </linearGradient>
    <linearGradient id="paint1_linear" x1="14.95" y1="4.28" x2="21.39" y2="10.31" gradientUnits="userSpaceOnUse">
      <stop stop-color="#2563EB"/>
      <stop offset="1" stop-color="#60A5FA"/>
    </linearGradient>
    <linearGradient id="paint2_linear" x1="13.59" y1="14.22" x2="20.03" y2="20.25" gradientUnits="userSpaceOnUse">
      <stop stop-color="#7C3AED"/>
      <stop offset="1" stop-color="#A855F7"/>
    </linearGradient>
  </defs>
</svg>
