<svg xmlns="http://www.w3.org/2000/svg" viewBox="0 0 24 24" fill="none" stroke="#111827" stroke-width="1.8" stroke-linecap="round" stroke-linejoin="round">
  <circle cx="12" cy="12" r="3.1"/>
  <path d="M19.4 15a1.5 1.5 0 0 0 .3 1.7l.05.06a1.95 1.95 0 1 1-2.76 2.76l-.06-.05A1.5 1.5 0 0 0 15 19.4a1.5 1.5 0 0 0-.9 1.37V21a2 2 0 1 1-4 0v-.22A1.5 1.5 0 0 0 9 19.4a1.5 1.5 0 0 0-1.71.3l-.06.05a1.95 1.95 0 1 1-2.76-2.76l.05-.06A1.5 1.5 0 0 0 4.6 15a1.5 1.5 0 0 0-1.37-.9H3a2 2 0 1 1 0-4h.22A1.5 1.5 0 0 0 4.6 9a1.5 1.5 0 0 0-.3-1.71l-.05-.06a1.95 1.95 0 1 1 2.76-2.76l.06.05A1.5 1.5 0 0 0 9 4.6a1.5 1.5 0 0 0 .9-1.37V3a2 2 0 1 1 4 0v.22A1.5 1.5 0 0 0 15 4.6a1.5 1.5 0 0 0 1.71-.3l.06-.05a1.95 1.95 0 1 1 2.76 2.76l-.05.06A1.5 1.5 0 0 0 19.4 9c.4.34.85.54 1.37.57H21a2 2 0 1 1 0 4h-.22c-.52.03-.97.23-1.38.58z"/>
</svg>
